# Blender v2.79 (sub 0) OBJ File: ''
# www.blender.org
o Plane
v -1.172729 0.658349 0.684816
v 1.172729 0.658349 0.684816
v -1.172729 2.434073 -1.047953
v 1.172729 2.434073 -1.047953
v -1.175882 1.153532 -0.411879
v -0.000057 0.253654 0.500637
v 1.176026 1.152748 -0.412584
v 0.000052 1.996305 -1.254200
v 0.000059 1.080888 -0.438982
v -1.189894 0.833666 0.116814
v 0.609029 0.450683 0.602607
v 1.169599 1.815233 -0.681498
v -0.579803 2.224114 -1.108363
v -1.169473 1.815436 -0.681456
v -0.609092 0.450631 0.602601
v 1.189738 0.834005 0.116836
v 0.579956 2.224056 -1.108370
v 0.000104 1.621117 -0.775782
v 0.000023 0.595832 -0.010999
v -0.600577 1.119335 -0.420777
v 0.600675 1.119036 -0.421168
v 0.616472 0.655981 0.029329
v -0.616468 0.655979 0.029314
v -0.612373 1.704827 -0.747844
v 0.612649 1.704432 -0.748334
v -1.172729 0.880315 0.468220
v 0.879547 0.658349 0.684816
v 1.172729 2.212108 -0.831357
v -0.879547 2.434073 -1.047953
v -1.171288 1.468498 -0.551743
v -0.316816 0.307430 0.533145
v 1.185475 0.898520 -0.201832
v 0.300270 2.074972 -1.205639
v 0.000071 1.840376 -0.996269
v 0.000040 0.823062 -0.239039
v -0.894880 1.146672 -0.403198
v 0.304391 1.092430 -0.432533
v -1.185449 0.898979 -0.201599
v 0.316652 0.307633 0.533286
v 1.171520 1.468022 -0.552052
v -0.300150 2.074961 -1.205636
v -1.172729 2.212108 -0.831357
v -0.879547 0.658349 0.684816
v 1.172729 0.880315 0.468220
v 0.879547 2.434073 -1.047953
v 0.000092 1.352235 -0.614868
v -0.000017 0.411544 0.244772
v -0.304266 1.092707 -0.432173
v 0.895075 1.145870 -0.404163
v 0.604388 0.861049 -0.215548
v 0.615924 0.542280 0.326178
v 0.310834 0.612148 0.000750
v 0.907641 0.753786 0.089343
v -0.604360 0.861236 -0.215333
v -0.615772 0.542646 0.326291
v -0.907741 0.753582 0.089346
v -0.310781 0.612279 0.000803
v -0.607474 1.997853 -0.914984
v -0.605801 1.412051 -0.583654
v -0.911186 1.776214 -0.710275
v -0.312141 1.646661 -0.767696
v 0.607679 1.997681 -0.915120
v 0.606085 1.411512 -0.584406
v 0.312371 1.646473 -0.767920
v 0.911466 1.775814 -0.710705
v 0.899636 1.449000 -0.564448
v 0.308594 1.368545 -0.607960
v 0.308286 1.889384 -0.964019
v -0.308384 1.368849 -0.607543
v -0.899330 1.449559 -0.563839
v -0.896055 2.083178 -0.887587
v -0.315957 0.443798 0.266781
v -0.903463 0.676256 0.373812
v -0.899238 0.885921 -0.204187
v 0.903638 0.675899 0.373808
v 0.315978 0.443598 0.266705
v 0.305270 0.831505 -0.234481
v 0.899273 0.885531 -0.204534
v -0.305206 0.831673 -0.234321
v -0.308186 1.889301 -0.964082
v 0.896226 2.082984 -0.887753
v -1.172729 0.655302 0.679796
v 1.172729 0.655302 0.679796
v -1.172729 2.431026 -1.052973
v 1.172729 2.431026 -1.052973
v -1.175882 1.150484 -0.416899
v -0.000057 0.250607 0.495617
v 1.176026 1.149701 -0.417604
v 0.000052 1.993258 -1.259220
v 0.000059 1.077841 -0.444002
v -1.189894 0.830619 0.111794
v 0.609029 0.447636 0.597587
v 1.169599 1.812185 -0.686518
v -0.579803 2.221066 -1.113383
v -1.169473 1.812389 -0.686476
v -0.609092 0.447584 0.597581
v 1.189738 0.830958 0.111815
v 0.579956 2.221009 -1.113390
v 0.000104 1.618070 -0.780802
v 0.000023 0.592784 -0.016019
v -0.600577 1.116288 -0.425798
v 0.600675 1.115988 -0.426189
v 0.616472 0.652934 0.024308
v -0.616468 0.652932 0.024294
v -0.612373 1.701780 -0.752865
v 0.612649 1.701384 -0.753354
v -1.172729 0.877267 0.463200
v 0.879547 0.655302 0.679796
v 1.172729 2.209061 -0.836377
v -0.879547 2.431026 -1.052973
v -1.171288 1.465451 -0.556763
v -0.316816 0.304383 0.528124
v 1.185475 0.895472 -0.206853
v 0.300270 2.071924 -1.210659
v 0.000071 1.837329 -1.001289
v 0.000040 0.820015 -0.244059
v -0.894880 1.143625 -0.408218
v 0.304391 1.089382 -0.437553
v -1.185449 0.895932 -0.206619
v 0.316652 0.304586 0.528265
v 1.171520 1.464975 -0.557073
v -0.300150 2.071914 -1.210657
v -1.172729 2.209061 -0.836377
v -0.879547 0.655302 0.679796
v 1.172729 0.877267 0.463200
v 0.879547 2.431026 -1.052973
v 0.000092 1.349187 -0.619888
v -0.000017 0.408497 0.239751
v -0.304266 1.089659 -0.437194
v 0.895075 1.142823 -0.409183
v 0.604388 0.858002 -0.220569
v 0.615924 0.539233 0.321157
v 0.310834 0.609101 -0.004271
v 0.907641 0.750739 0.084322
v -0.604360 0.858189 -0.220353
v -0.615772 0.539599 0.321271
v -0.907741 0.750535 0.084325
v -0.310781 0.609232 -0.004217
v -0.607474 1.994806 -0.920004
v -0.605801 1.409004 -0.588675
v -0.911186 1.773167 -0.715296
v -0.312141 1.643613 -0.772716
v 0.607679 1.994634 -0.920141
v 0.606085 1.408465 -0.589426
v 0.312371 1.643425 -0.772941
v 0.911466 1.772767 -0.715726
v 0.899636 1.445952 -0.569468
v 0.308594 1.365498 -0.612980
v 0.308286 1.886336 -0.969039
v -0.308384 1.365801 -0.612563
v -0.899330 1.446512 -0.568860
v -0.896055 2.080131 -0.892608
v -0.315957 0.440750 0.261761
v -0.903463 0.673208 0.368792
v -0.899238 0.882873 -0.209207
v 0.903638 0.672852 0.368788
v 0.315978 0.440551 0.261685
v 0.305270 0.828458 -0.239502
v 0.899273 0.882484 -0.209554
v -0.305206 0.828626 -0.239341
v -0.308186 1.886254 -0.969102
v 0.896226 2.079937 -0.892773
vt 0.169346 0.154267
vt 0.063298 0.130383
vt 0.059598 0.022592
vt 0.161497 0.019094
vt 0.620242 0.186424
vt 0.505085 0.190004
vt 0.505115 0.081259
vt 0.614167 0.078748
vt 0.611677 0.647421
vt 0.505022 0.648153
vt 0.505031 0.533618
vt 0.612683 0.532233
vt 0.186079 0.642762
vt 0.086233 0.637748
vt 0.089036 0.523924
vt 0.187265 0.525918
vt 0.398375 0.647402
vt 0.292083 0.645384
vt 0.292053 0.528418
vt 0.397385 0.532204
vt 0.395035 0.869036
vt 0.282616 0.871271
vt 0.288482 0.758616
vt 0.397152 0.759551
vt 0.166160 0.865898
vt 0.039731 0.865518
vt 0.073271 0.748748
vt 0.176369 0.758145
vt 0.823989 0.642814
vt 0.717979 0.645431
vt 0.718022 0.528483
vt 0.822799 0.525984
vt 0.843875 0.865890
vt 0.727422 0.871289
vt 0.721561 0.758635
vt 0.833686 0.758181
vt 0.615005 0.869048
vt 0.505020 0.868494
vt 0.505016 0.759863
vt 0.612886 0.759555
vt 0.840857 0.154408
vt 0.734842 0.169545
vt 0.728290 0.064650
vt 0.848802 0.019283
vt 0.828003 0.405043
vt 0.723124 0.409605
vt 0.729759 0.289893
vt 0.839220 0.279471
vt 0.615743 0.415889
vt 0.505041 0.418535
vt 0.505061 0.304547
vt 0.619608 0.300199
vt 0.389937 0.186376
vt 0.275344 0.169457
vt 0.281942 0.064557
vt 0.396058 0.078699
vt 0.394341 0.415858
vt 0.286957 0.409542
vt 0.280366 0.289823
vt 0.390513 0.300166
vt 0.182065 0.404960
vt 0.086753 0.404805
vt 0.079192 0.276797
vt 0.170900 0.279354
vt 0.923335 0.404909
vt 0.930954 0.276962
vt 0.921050 0.523986
vt 0.946940 0.130621
vt 0.950697 0.022834
vt 0.729748 0.972350
vt 0.615754 0.972034
vt 0.505017 0.971608
vt 0.970284 0.865574
vt 0.936793 0.748763
vt 0.949400 0.969180
vt 0.849636 0.978530
vt 0.923838 0.637793
vt 0.280289 0.972318
vt 0.160399 0.978529
vt 0.060640 0.969120
vt 0.394279 0.972015
vt 0.841103 0.153972
vt 0.848997 0.018381
vt 0.951212 0.021906
vt 0.947484 0.130030
vt 0.388803 0.186161
vt 0.394914 0.078152
vt 0.504304 0.080687
vt 0.504317 0.189769
vt 0.397326 0.648590
vt 0.396335 0.533045
vt 0.504320 0.534449
vt 0.504312 0.649340
vt 0.824245 0.643980
vt 0.823072 0.526773
vt 0.921607 0.524788
vt 0.924401 0.638965
vt 0.611290 0.648602
vt 0.612300 0.533047
vt 0.717959 0.529266
vt 0.717912 0.646594
vt 0.614607 0.870924
vt 0.612500 0.761100
vt 0.721507 0.760177
vt 0.727374 0.873183
vt 0.844193 0.867811
vt 0.833968 0.759722
vt 0.937387 0.750311
vt 0.971014 0.867449
vt 0.184356 0.643936
vt 0.185567 0.526744
vt 0.290669 0.529267
vt 0.290695 0.646578
vt 0.164375 0.867702
vt 0.174612 0.759660
vt 0.287085 0.760133
vt 0.281189 0.873135
vt 0.393955 0.870904
vt 0.396097 0.761071
vt 0.504301 0.761397
vt 0.504281 0.870364
vt 0.167509 0.154013
vt 0.159560 0.018467
vt 0.280439 0.063994
vt 0.273851 0.169213
vt 0.180366 0.405427
vt 0.169133 0.279465
vt 0.278931 0.289935
vt 0.285569 0.410019
vt 0.393282 0.416339
vt 0.389422 0.300289
vt 0.504324 0.304668
vt 0.504327 0.419010
vt 0.619823 0.186147
vt 0.613699 0.078136
vt 0.728171 0.063967
vt 0.734775 0.169193
vt 0.615371 0.416341
vt 0.619229 0.300290
vt 0.729718 0.289933
vt 0.723089 0.410021
vt 0.828307 0.405441
vt 0.839525 0.279447
vt 0.931519 0.276896
vt 0.923915 0.405300
vt 0.084738 0.405279
vt 0.077115 0.276933
vt 0.087012 0.524726
vt 0.061100 0.130137
vt 0.057348 0.022015
vt 0.278840 0.974509
vt 0.393188 0.974209
vt 0.504268 0.973798
vt 0.037574 0.867365
vt 0.071187 0.750198
vt 0.058508 0.971296
vt 0.158580 0.980690
vt 0.084199 0.638886
vt 0.729694 0.974544
vt 0.849955 0.980792
vt 0.950024 0.971368
vt 0.615350 0.974223
vn -0.2690 0.4667 0.8425
vn -0.2298 0.4807 0.8462
vn -0.2023 0.5339 0.8209
vn -0.2690 0.5073 0.8187
vn 0.2663 0.6669 0.6959
vn 0.0000 0.7500 0.6615
vn -0.0001 0.8236 0.5671
vn 0.3456 0.7223 0.5990
vn 0.0807 0.6722 0.7360
vn 0.0004 0.6663 0.7457
vn 0.0007 0.5753 0.8179
vn 0.0719 0.5685 0.8195
vn -0.1321 0.7737 0.6196
vn -0.0966 0.8177 0.5674
vn -0.0206 0.5320 0.8465
vn -0.0604 0.5401 0.8394
vn -0.0803 0.6725 0.7357
vn -0.1425 0.7037 0.6961
vn -0.1016 0.5539 0.8263
vn -0.0710 0.5689 0.8193
vn -0.2360 0.8555 0.4609
vn -0.4121 0.8603 0.2999
vn -0.2635 0.8351 0.4828
vn -0.1380 0.7939 0.5922
vn -0.4520 0.8702 0.1959
vn -0.4229 0.8820 0.2076
vn -0.3297 0.9297 0.1639
vn -0.3268 0.8999 0.2887
vn 0.1324 0.7725 0.6211
vn 0.1429 0.7029 0.6968
vn 0.1024 0.5532 0.8267
vn 0.0607 0.5396 0.8397
vn 0.4516 0.8705 0.1957
vn 0.4122 0.8602 0.3001
vn 0.2634 0.8352 0.4828
vn 0.3265 0.9000 0.2888
vn 0.2363 0.8552 0.4613
vn 0.0001 0.8502 0.5264
vn 0.0003 0.7767 0.6298
vn 0.1382 0.7939 0.5921
vn 0.2686 0.4673 0.8423
vn 0.3195 0.5360 0.7814
vn 0.3980 0.5470 0.7365
vn 0.2687 0.5078 0.8184
vn 0.1040 0.4356 0.8941
vn 0.1327 0.4809 0.8666
vn 0.1958 0.4906 0.8491
vn 0.1916 0.4274 0.8835
vn 0.0888 0.5120 0.8544
vn 0.0007 0.5239 0.8518
vn 0.0004 0.5881 0.8088
vn 0.1434 0.5537 0.8202
vn -0.2658 0.6666 0.6964
vn -0.3190 0.5354 0.7820
vn -0.3977 0.5467 0.7368
vn -0.3453 0.7223 0.5991
vn -0.0876 0.5120 0.8545
vn -0.1320 0.4808 0.8668
vn -0.1952 0.4898 0.8497
vn -0.1424 0.5532 0.8208
vn -0.1043 0.4349 0.8944
vn -0.0715 0.4067 0.9108
vn -0.1960 0.3919 0.8989
vn -0.1923 0.4265 0.8838
vn 0.0703 0.4076 0.9104
vn 0.1947 0.3926 0.8988
vn 0.0198 0.5317 0.8467
vn 0.2291 0.4812 0.8461
vn 0.2019 0.5343 0.8208
vn 0.4838 0.8422 0.2379
vn 0.2922 0.8586 0.4210
vn 0.0000 0.8713 0.4907
vn 0.4222 0.8824 0.2073
vn 0.3291 0.9299 0.1643
vn 0.3711 0.8515 0.3703
vn 0.4582 0.8516 0.2545
vn 0.0962 0.8165 0.5692
vn -0.4834 0.8429 0.2365
vn -0.4584 0.8518 0.2534
vn -0.3717 0.8516 0.3696
vn -0.2919 0.8593 0.4200
vn 0.2690 -0.4667 -0.8425
vn 0.2690 -0.5073 -0.8187
vn 0.2023 -0.5339 -0.8209
vn 0.2298 -0.4807 -0.8462
vn -0.2663 -0.6669 -0.6959
vn -0.3456 -0.7223 -0.5990
vn 0.0001 -0.8236 -0.5671
vn -0.0000 -0.7500 -0.6615
vn -0.0807 -0.6722 -0.7360
vn -0.0719 -0.5685 -0.8195
vn -0.0007 -0.5753 -0.8179
vn -0.0004 -0.6663 -0.7457
vn 0.1321 -0.7737 -0.6196
vn 0.0604 -0.5401 -0.8394
vn 0.0206 -0.5320 -0.8465
vn 0.0966 -0.8177 -0.5674
vn 0.0803 -0.6725 -0.7357
vn 0.0710 -0.5689 -0.8193
vn 0.1016 -0.5539 -0.8263
vn 0.1425 -0.7037 -0.6961
vn 0.2360 -0.8555 -0.4609
vn 0.1380 -0.7939 -0.5922
vn 0.2635 -0.8351 -0.4828
vn 0.4121 -0.8603 -0.2999
vn 0.4520 -0.8702 -0.1959
vn 0.3268 -0.8999 -0.2887
vn 0.3297 -0.9297 -0.1639
vn 0.4229 -0.8820 -0.2076
vn -0.1324 -0.7725 -0.6211
vn -0.0607 -0.5396 -0.8397
vn -0.1024 -0.5532 -0.8267
vn -0.1429 -0.7029 -0.6968
vn -0.4516 -0.8705 -0.1957
vn -0.3265 -0.9000 -0.2888
vn -0.2634 -0.8352 -0.4828
vn -0.4122 -0.8602 -0.3001
vn -0.2363 -0.8552 -0.4613
vn -0.1382 -0.7939 -0.5921
vn -0.0003 -0.7767 -0.6298
vn -0.0001 -0.8502 -0.5264
vn -0.2686 -0.4673 -0.8423
vn -0.2687 -0.5078 -0.8184
vn -0.3980 -0.5470 -0.7365
vn -0.3195 -0.5360 -0.7814
vn -0.1040 -0.4356 -0.8941
vn -0.1916 -0.4274 -0.8835
vn -0.1958 -0.4906 -0.8491
vn -0.1327 -0.4809 -0.8666
vn -0.0888 -0.5120 -0.8544
vn -0.1434 -0.5537 -0.8202
vn -0.0004 -0.5881 -0.8088
vn -0.0007 -0.5239 -0.8518
vn 0.2658 -0.6666 -0.6964
vn 0.3453 -0.7223 -0.5991
vn 0.3977 -0.5467 -0.7368
vn 0.3190 -0.5354 -0.7820
vn 0.0876 -0.5120 -0.8545
vn 0.1424 -0.5532 -0.8208
vn 0.1952 -0.4898 -0.8497
vn 0.1320 -0.4808 -0.8668
vn 0.1043 -0.4349 -0.8944
vn 0.1923 -0.4265 -0.8838
vn 0.1960 -0.3919 -0.8989
vn 0.0715 -0.4067 -0.9108
vn -0.0703 -0.4076 -0.9104
vn -0.1947 -0.3926 -0.8988
vn -0.0198 -0.5317 -0.8467
vn -0.2291 -0.4812 -0.8461
vn -0.2019 -0.5343 -0.8208
vn -0.4838 -0.8422 -0.2379
vn -0.2922 -0.8586 -0.4210
vn 0.0000 -0.8713 -0.4907
vn -0.4222 -0.8824 -0.2073
vn -0.3291 -0.9299 -0.1643
vn -0.3711 -0.8515 -0.3703
vn -0.4582 -0.8516 -0.2545
vn -0.0962 -0.8165 -0.5692
vn 0.4834 -0.8429 -0.2365
vn 0.4584 -0.8518 -0.2534
vn 0.3717 -0.8516 -0.3696
vn 0.2919 -0.8593 -0.4200
s 1
f 81/1/1 28/2/2 4/3/3 45/4/4
f 80/5/5 34/6/6 8/7/7 41/8/8
f 79/9/9 35/10/10 9/11/11 48/12/12
f 78/13/13 32/14/14 7/15/15 49/16/16
f 77/17/17 50/18/18 21/19/19 37/20/20
f 76/21/21 51/22/22 22/23/23 52/24/24
f 75/25/25 44/26/26 16/27/27 53/28/28
f 74/29/29 54/30/30 20/31/31 36/32/32
f 73/33/33 55/34/34 23/35/35 56/36/36
f 72/37/37 47/38/38 19/39/39 57/40/40
f 71/41/41 58/42/42 13/43/43 29/44/44
f 70/45/45 59/46/46 24/47/47 60/48/48
f 69/49/49 46/50/50 18/51/51 61/52/52
f 68/53/53 62/54/54 17/55/55 33/56/56
f 67/57/57 63/58/58 25/59/59 64/60/60
f 66/61/61 40/62/62 12/63/63 65/64/64
f 63/58/58 66/61/61 65/64/64 25/59/59
f 21/19/19 49/16/16 66/61/61 63/58/58
f 49/16/16 7/15/15 40/62/62 66/61/61
f 46/50/50 67/57/57 64/60/60 18/51/51
f 9/11/11 37/20/20 67/57/57 46/50/50
f 37/20/20 21/19/19 63/58/58 67/57/57
f 34/6/6 68/53/53 33/56/56 8/7/7
f 18/51/51 64/60/60 68/53/53 34/6/6
f 64/60/60 25/59/59 62/54/54 68/53/53
f 59/46/46 69/49/49 61/52/52 24/47/47
f 20/31/31 48/12/12 69/49/49 59/46/46
f 48/12/12 9/11/11 46/50/50 69/49/49
f 30/65/65 70/45/45 60/48/48 14/66/66
f 5/67/67 36/32/32 70/45/45 30/65/65
f 36/32/32 20/31/31 59/46/46 70/45/45
f 42/68/68 71/41/41 29/44/44 3/69/69
f 14/66/66 60/48/48 71/41/41 42/68/68
f 60/48/48 24/47/47 58/42/42 71/41/41
f 55/34/34 72/37/37 57/40/40 23/35/35
f 15/70/70 31/71/71 72/37/37 55/34/34
f 31/71/71 6/72/72 47/38/38 72/37/37
f 26/73/73 73/33/33 56/36/36 10/74/74
f 1/75/75 43/76/76 73/33/33 26/73/73
f 43/76/76 15/70/70 55/34/34 73/33/33
f 38/77/77 74/29/29 36/32/32 5/67/67
f 10/74/74 56/36/36 74/29/29 38/77/77
f 56/36/36 23/35/35 54/30/30 74/29/29
f 51/22/22 75/25/25 53/28/28 22/23/23
f 11/78/78 27/79/79 75/25/25 51/22/22
f 27/79/79 2/80/80 44/26/26 75/25/25
f 47/38/38 76/21/21 52/24/24 19/39/39
f 6/72/72 39/81/81 76/21/21 47/38/38
f 39/81/81 11/78/78 51/22/22 76/21/21
f 35/10/10 77/17/17 37/20/20 9/11/11
f 19/39/39 52/24/24 77/17/17 35/10/10
f 52/24/24 22/23/23 50/18/18 77/17/17
f 50/18/18 78/13/13 49/16/16 21/19/19
f 22/23/23 53/28/28 78/13/13 50/18/18
f 53/28/28 16/27/27 32/14/14 78/13/13
f 54/30/30 79/9/9 48/12/12 20/31/31
f 23/35/35 57/40/40 79/9/9 54/30/30
f 57/40/40 19/39/39 35/10/10 79/9/9
f 58/42/42 80/5/5 41/8/8 13/43/43
f 24/47/47 61/52/52 80/5/5 58/42/42
f 61/52/52 18/51/51 34/6/6 80/5/5
f 62/54/54 81/1/1 45/4/4 17/55/55
f 25/59/59 65/64/64 81/1/1 62/54/54
f 65/64/64 12/63/63 28/2/2 81/1/1
f 162/82/82 126/83/83 85/84/84 109/85/85
f 161/86/86 122/87/87 89/88/88 115/89/89
f 160/90/90 129/91/91 90/92/92 116/93/93
f 159/94/94 130/95/95 88/96/96 113/97/97
f 158/98/98 118/99/99 102/100/100 131/101/101
f 157/102/102 133/103/103 103/104/104 132/105/105
f 156/106/106 134/107/107 97/108/108 125/109/109
f 155/110/110 117/111/111 101/112/112 135/113/113
f 154/114/114 137/115/115 104/116/116 136/117/117
f 153/118/118 138/119/119 100/120/120 128/121/121
f 152/122/122 110/123/123 94/124/124 139/125/125
f 151/126/126 141/127/127 105/128/128 140/129/129
f 150/130/130 142/131/131 99/132/132 127/133/133
f 149/134/134 114/135/135 98/136/136 143/137/137
f 148/138/138 145/139/139 106/140/140 144/141/141
f 147/142/142 146/143/143 93/144/144 121/145/145
f 144/141/141 106/140/140 146/143/143 147/142/142
f 102/100/100 144/141/141 147/142/142 130/95/95
f 130/95/95 147/142/142 121/145/145 88/96/96
f 127/133/133 99/132/132 145/139/139 148/138/138
f 90/92/92 127/133/133 148/138/138 118/99/99
f 118/99/99 148/138/138 144/141/141 102/100/100
f 115/89/89 89/88/88 114/135/135 149/134/134
f 99/132/132 115/89/89 149/134/134 145/139/139
f 145/139/139 149/134/134 143/137/137 106/140/140
f 140/129/129 105/128/128 142/131/131 150/130/130
f 101/112/112 140/129/129 150/130/130 129/91/91
f 129/91/91 150/130/130 127/133/133 90/92/92
f 111/146/146 95/147/147 141/127/127 151/126/126
f 86/148/148 111/146/146 151/126/126 117/111/111
f 117/111/111 151/126/126 140/129/129 101/112/112
f 123/149/149 84/150/150 110/123/123 152/122/122
f 95/147/147 123/149/149 152/122/122 141/127/127
f 141/127/127 152/122/122 139/125/125 105/128/128
f 136/117/117 104/116/116 138/119/119 153/118/118
f 96/151/151 136/117/117 153/118/118 112/152/152
f 112/152/152 153/118/118 128/121/121 87/153/153
f 107/154/154 91/155/155 137/115/115 154/114/114
f 82/156/156 107/154/154 154/114/114 124/157/157
f 124/157/157 154/114/114 136/117/117 96/151/151
f 119/158/158 86/148/148 117/111/111 155/110/110
f 91/155/155 119/158/158 155/110/110 137/115/115
f 137/115/115 155/110/110 135/113/113 104/116/116
f 132/105/105 103/104/104 134/107/107 156/106/106
f 92/159/159 132/105/105 156/106/106 108/160/160
f 108/160/160 156/106/106 125/109/109 83/161/161
f 128/121/121 100/120/120 133/103/103 157/102/102
f 87/153/153 128/121/121 157/102/102 120/162/162
f 120/162/162 157/102/102 132/105/105 92/159/159
f 116/93/93 90/92/92 118/99/99 158/98/98
f 100/120/120 116/93/93 158/98/98 133/103/103
f 133/103/103 158/98/98 131/101/101 103/104/104
f 131/101/101 102/100/100 130/95/95 159/94/94
f 103/104/104 131/101/101 159/94/94 134/107/107
f 134/107/107 159/94/94 113/97/97 97/108/108
f 135/113/113 101/112/112 129/91/91 160/90/90
f 104/116/116 135/113/113 160/90/90 138/119/119
f 138/119/119 160/90/90 116/93/93 100/120/120
f 139/125/125 94/124/124 122/87/87 161/86/86
f 105/128/128 139/125/125 161/86/86 142/131/131
f 142/131/131 161/86/86 115/89/89 99/132/132
f 143/137/137 98/136/136 126/83/83 162/82/82
f 106/140/140 143/137/137 162/82/82 146/143/143
f 146/143/143 162/82/82 109/85/85 93/144/144
