# Blender v2.79 (sub 0) OBJ File: ''
# www.blender.org
o Circle.002_Circle.003
v -0.009836 0.381817 -0.393039
v -0.193187 0.386671 -0.300192
v 0.183011 0.384167 -0.318848
v -0.334056 0.385858 -0.157689
v -0.402204 0.382345 0.018917
v 0.360941 0.384309 0.052093
v 0.307904 0.386272 -0.159344
v 0.312748 0.382344 0.224748
v -0.009447 0.375931 0.452322
v 0.186280 0.378193 0.384004
v -0.195486 0.378721 0.384795
v -0.345020 0.383895 0.180503
v -0.006419 -0.185266 -1.130521
v -0.514317 -0.185266 -0.872510
v -0.905074 -0.185266 -0.477129
v -1.095864 -0.185266 0.011753
v -0.941634 -0.185266 0.461578
v -0.526474 -0.185266 1.039626
v -0.006100 -0.185266 1.234446
v 0.542668 -0.185266 1.038891
v 0.892681 -0.185266 0.586714
v 1.020273 -0.185266 0.104070
v 0.870924 -0.185266 -0.482109
v 0.526266 -0.185266 -0.925843
v -0.009059 0.622521 -0.633760
v -0.303841 0.621607 -0.487204
v -0.530848 0.621607 -0.257584
v -0.640587 0.621983 0.026679
v -0.552702 0.621508 0.288162
v -0.310394 0.622259 0.621700
v -0.008606 0.623016 0.732759
v 0.309213 0.622519 0.620703
v 0.513302 0.621854 0.360276
v 0.587899 0.621617 0.080084
v 0.501329 0.621524 -0.260465
v 0.300102 0.622170 -0.516285
v -1.133467 0.072146 0.010523
v -0.972270 0.072146 0.475310
v 0.900629 0.072146 -0.499724
v 0.544870 0.072146 -0.958641
v -0.006490 0.072146 -1.171731
v -0.531195 0.072146 -0.902855
v 0.561838 0.072146 1.072304
v 0.923028 0.072146 0.604524
v -0.544511 0.072146 1.073071
v -0.934930 0.072146 -0.494866
v 1.055337 0.072146 0.105796
v -0.005947 0.072146 1.275175
v -0.007312 0.383407 -1.022854
v -0.468964 0.382622 -0.788562
v -0.823697 0.382761 -0.429374
v -0.996797 0.383221 0.015252
v -0.857023 0.382591 0.424198
v -0.480229 0.382991 0.948848
v -0.006700 0.383109 1.126743
v 0.492683 0.382924 0.948602
v 0.810522 0.382719 0.537596
v 0.926093 0.382927 0.098859
v 0.790634 0.382775 -0.433477
v 0.477784 0.382905 -0.836822
vt 0.389459 0.603828
vt 0.489381 0.637643
vt 0.478287 0.747392
vt 0.307213 0.686614
vt 0.780611 0.388949
vt 0.877299 0.354745
vt 0.881926 0.554587
vt 0.771657 0.533357
vt 0.447779 0.338893
vt 0.385391 0.378912
vt 0.299836 0.305382
vt 0.407597 0.236806
vt 0.338414 0.537625
vt 0.221471 0.576056
vt 0.587104 0.497445
vt 0.660009 0.514622
vt 0.621538 0.587513
vt 0.568140 0.535682
vt 0.560462 0.636228
vt 0.599967 0.743806
vt 0.536674 0.333428
vt 0.560009 0.227631
vt 0.339369 0.450353
vt 0.223038 0.429172
vt 0.704239 0.660659
vt 0.421314 0.509933
vt 0.422349 0.465181
vt 0.537271 0.561348
vt 0.478435 0.408547
vt 0.524009 0.406486
vt 0.446449 0.429315
vt 0.614072 0.362784
vt 0.564369 0.421282
vt 0.500539 0.560540
vt 0.448403 0.543506
vt 0.667474 0.429594
vt 0.592763 0.454787
vt 0.789661 0.735510
vt 0.636163 0.841180
vt 0.466310 0.861161
vt 0.231769 0.766212
vt 0.122048 0.609023
vt 0.115732 0.408734
vt 0.217813 0.232800
vt 0.367586 0.136509
vt 0.581143 0.117530
vt 0.691623 0.278184
vt 0.764068 0.197337
vt 0.596316 0.017973
vt 0.828172 0.110614
vt 0.868273 0.803365
vt 0.675640 0.949172
vt 0.989058 0.317621
vt 0.988545 0.582902
vt 0.334020 0.035959
vt 0.010304 0.378536
vt 0.141051 0.155528
vt 0.009520 0.647437
vt 0.452689 0.963910
vt 0.167068 0.852182
vn -0.0384 0.9992 0.0121
vn 0.0234 0.9997 -0.0107
vn -0.7059 0.6072 0.3646
vn -0.4784 0.6212 0.6206
vn -0.0422 0.6328 -0.7732
vn -0.0480 0.1338 -0.9898
vn -0.5830 0.1264 -0.8025
vn -0.4660 0.6135 -0.6375
vn 0.0103 0.9999 -0.0085
vn -0.0025 0.9999 -0.0115
vn 0.7083 0.6134 0.3493
vn 0.7970 0.6040 0.0033
vn -0.0024 0.9990 0.0443
vn -0.0065 0.6403 0.7681
vn 0.2695 0.8944 0.3568
vn 0.0176 0.9991 0.0375
vn 0.0183 0.9998 0.0057
vn 0.3635 0.8979 0.2483
vn -0.0441 0.9990 -0.0024
vn -0.7904 0.6123 -0.0160
vn -0.0117 0.9998 0.0125
vn 0.7148 0.6058 -0.3493
vn 0.0266 0.9996 0.0106
vn 0.4575 0.6296 0.6279
vn -0.6653 0.6085 -0.4324
vn 0.0004 0.9113 -0.4116
vn -0.2592 0.9076 -0.3301
vn 0.4445 0.8956 0.0160
vn -0.4505 0.8927 0.0085
vn -0.4060 0.8919 0.1990
vn -0.3884 0.9039 -0.1790
vn 0.0110 0.9999 0.0087
vn -0.2728 0.8929 0.3582
vn 0.3807 0.9053 -0.1880
vn 0.2722 0.9047 -0.3276
vn -0.0127 0.9987 -0.0489
vn 0.0326 0.8873 0.4599
vn -0.8325 0.1252 -0.5397
vn -0.9917 0.1270 -0.0211
vn -0.8821 0.1242 0.4544
vn -0.5970 0.1296 0.7917
vn -0.0072 0.1357 0.9907
vn 0.5781 0.1320 0.8052
vn 0.8885 0.1265 0.4410
vn 0.9922 0.1240 0.0062
vn 0.8903 0.1242 -0.4382
vn 0.4675 0.6238 -0.6264
vn 0.5872 0.1303 -0.7989
vn 0.8909 -0.1334 -0.4341
vn 0.5930 -0.1444 -0.7922
vn -0.8303 -0.1344 -0.5408
vn -0.9897 -0.1417 -0.0199
vn -0.0535 -0.1546 -0.9865
vn -0.5862 -0.1349 -0.7988
vn 0.9909 -0.1342 0.0035
vn 0.5833 -0.1469 0.7989
vn 0.8889 -0.1362 0.4373
vn -0.0082 -0.1553 0.9878
vn -0.8803 -0.1319 0.4557
vn -0.6054 -0.1433 0.7829
s 1
f 30/1/1 29/2/2 53/3/3 54/4/4
f 49/5/5 41/6/6 42/7/7 50/8/8
f 34/9/9 33/10/10 57/11/11 58/12/12
f 31/13/13 30/1/1 54/4/4 55/14/14
f 2/15/15 26/16/16 27/17/17 4/18/18
f 29/2/2 28/19/19 52/20/20 53/3/3
f 35/21/21 34/9/9 58/12/12 59/22/22
f 32/23/23 31/13/13 55/14/14 56/24/24
f 28/19/19 27/17/17 51/25/25 52/20/20
f 33/10/10 32/23/23 56/24/24 57/11/11
f 9/26/26 31/13/13 32/23/23 10/27/27
f 4/18/18 27/17/17 28/19/19 5/28/28
f 6/29/29 34/9/9 35/21/21 7/30/30
f 10/27/27 32/23/23 33/10/10 8/31/31
f 7/30/30 35/21/21 36/32/32 3/33/33
f 5/28/28 28/19/19 29/2/2 12/34/34
f 11/35/35 30/1/1 31/13/13 9/26/26
f 8/31/31 33/10/10 34/9/9 6/29/29
f 3/33/33 36/32/32 25/36/36 1/37/37
f 12/34/34 29/2/2 30/1/1 11/35/35
f 50/8/8 42/7/7 46/38/38 51/25/25
f 51/25/25 46/38/38 37/39/39 52/20/20
f 53/3/3 52/20/20 37/39/39 38/40/40
f 53/3/3 38/40/40 45/41/41 54/4/4
f 54/4/4 45/41/41 48/42/42 55/14/14
f 56/24/24 55/14/14 48/42/42 43/43/43
f 56/24/24 43/43/43 44/44/44 57/11/11
f 57/11/11 44/44/44 47/45/45 58/12/12
f 58/12/12 47/45/45 39/46/46 59/22/22
f 60/47/47 59/22/22 39/46/46 40/48/48
f 27/17/17 26/16/16 50/8/8 51/25/25
f 25/36/36 26/16/16 2/15/15 1/37/37
f 40/48/48 39/46/46 23/49/49 24/50/50
f 37/39/39 46/38/38 15/51/51 16/52/52
f 36/32/32 35/21/21 59/22/22 60/47/47
f 42/7/7 41/6/6 13/53/53 14/54/54
f 39/46/46 47/45/45 22/55/55 23/49/49
f 49/5/5 25/36/36 36/32/32 60/47/47
f 44/44/44 43/43/43 20/56/56 21/57/57
f 41/6/6 40/48/48 24/50/50 13/53/53
f 25/36/36 49/5/5 50/8/8 26/16/16
f 43/43/43 48/42/42 19/58/58 20/56/56
f 45/41/41 38/40/40 17/59/59 18/60/60
f 46/38/38 42/7/7 14/54/54 15/51/51
f 47/45/45 44/44/44 21/57/57 22/55/55
f 48/42/42 45/41/41 18/60/60 19/58/58
f 38/40/40 37/39/39 16/52/52 17/59/59
f 49/5/5 60/47/47 40/48/48 41/6/6
f 6/29/29 7/30/30 10/27/27 8/31/31
f 7/30/30 3/33/33 9/26/26 10/27/27
f 3/33/33 1/37/37 11/35/35 9/26/26
f 1/37/37 2/15/15 12/34/34 11/35/35
f 2/15/15 4/18/18 5/28/28 12/34/34
